<svg xmlns="http://www.w3.org/2000/svg" viewBox="0 0 880 440" font-family="ui-sans-serif, system-ui, -apple-system, 'Segoe UI', 'DejaVu Sans', sans-serif"><rect width="880" height="440" rx="16" fill="#0e1526"/><defs><marker id="m4ade80" markerWidth="9" markerHeight="7" refX="7.2" refY="3.5" orient="auto"><polygon points="0 0, 8 3.5, 0 7" fill="#4ade80"/></marker><marker id="me8a33d" markerWidth="9" markerHeight="7" refX="7.2" refY="3.5" orient="auto"><polygon points="0 0, 8 3.5, 0 7" fill="#e8a33d"/></marker><marker id="m5b87c9" markerWidth="9" markerHeight="7" refX="7.2" refY="3.5" orient="auto"><polygon points="0 0, 8 3.5, 0 7" fill="#5b87c9"/></marker></defs><text x="34" y="40" fill="#8fa0b8" font-family="ui-sans-serif, system-ui, -apple-system, 'Segoe UI', 'DejaVu Sans', sans-serif" font-size="12" letter-spacing="2.5" font-weight="600">STAGE 3</text><text x="34" y="64" fill="#e8ecf4" font-family="ui-sans-serif, system-ui, -apple-system, 'Segoe UI', 'DejaVu Sans', sans-serif" font-size="17" font-weight="700">The self-referential meta agent</text><g opacity="1.0"><rect x="36" y="195" width="118" height="96" rx="12" fill="#e8a33d" fill-opacity="0.1" stroke="#e8a33d" stroke-width="1.6"/></g><g stroke="#e8a33d" stroke-width="1.7" fill="none" stroke-linecap="round"><circle cx="95" cy="224.0" r="5.5"/><path d="M 86.0 244.0 C 86.0 232.0, 104.0 232.0, 104.0 244.0"/></g><text x="95" y="267" text-anchor="middle" fill="#e8ecf4" font-family="ui-sans-serif, system-ui, -apple-system, 'Segoe UI', 'DejaVu Sans', sans-serif" font-size="12.5" font-weight="600">Humans</text><g opacity="1.0"><rect x="240" y="84" width="330" height="242" rx="12" fill="#e8a33d" fill-opacity="0.06" stroke="#e8a33d" stroke-width="1.6"/><text x="405.0" y="110" text-anchor="middle" fill="#e8ecf4" font-family="ui-sans-serif, system-ui, -apple-system, 'Segoe UI', 'DejaVu Sans', sans-serif" font-size="13.5" font-weight="600">Improvement loop</text></g><g opacity="1.0"><rect x="272" y="132" width="266" height="44" rx="12" fill="#4ade80" fill-opacity="0.1" stroke="#4ade80" stroke-width="1.6"/><text x="405.0" y="160" text-anchor="middle" fill="#e8ecf4" font-family="ui-sans-serif, system-ui, -apple-system, 'Segoe UI', 'DejaVu Sans', sans-serif" font-size="12.5" font-weight="600">Meta agent</text></g><g opacity="1.0"><rect x="272" y="260" width="266" height="44" rx="12" fill="#4ade80" fill-opacity="0.1" stroke="#4ade80" stroke-width="1.6"/><text x="405.0" y="288" text-anchor="middle" fill="#e8ecf4" font-family="ui-sans-serif, system-ui, -apple-system, 'Segoe UI', 'DejaVu Sans', sans-serif" font-size="12.5" font-weight="600">Task agent</text></g><path d="M 440 180 L 440 256" fill="none" stroke="#4ade80" stroke-width="1.6" marker-end="url(#m4ade80)" opacity="1.0"/><path d="M 340 180 C 316 224, 402 224, 378 184" fill="none" stroke="#4ade80" stroke-width="1.6" marker-end="url(#m4ade80)" opacity="1.0"/><text x="398" y="234" text-anchor="middle" fill="#e8ecf4" font-family="ui-sans-serif, system-ui, -apple-system, 'Segoe UI', 'DejaVu Sans', sans-serif" font-size="11" font-weight="normal">modifies code</text><g opacity="1.0"><rect x="328" y="360" width="155" height="52" rx="12" fill="#e8a33d" fill-opacity="0.1" stroke="#e8a33d" stroke-width="1.6"/><text x="405.5" y="382" text-anchor="middle" fill="#e8ecf4" font-family="ui-sans-serif, system-ui, -apple-system, 'Segoe UI', 'DejaVu Sans', sans-serif" font-size="13.5" font-weight="600">Model (LLM)</text></g><text x="405" y="400" text-anchor="middle" fill="#8fa0b8" font-family="ui-sans-serif, system-ui, -apple-system, 'Segoe UI', 'DejaVu Sans', sans-serif" font-size="10.5" font-weight="normal">(weights)</text><g opacity="1.0"><rect x="680" y="130" width="182" height="164" rx="12" fill="#e8a33d" fill-opacity="0.1" stroke="#e8a33d" stroke-width="1.6"/><text x="771.0" y="156" text-anchor="middle" fill="#e8ecf4" font-family="ui-sans-serif, system-ui, -apple-system, 'Segoe UI', 'DejaVu Sans', sans-serif" font-size="13.5" font-weight="600">Task set</text></g><g opacity="1.0"><rect x="705" y="170" width="132" height="30" rx="7" fill="#141d33" stroke="#e8a33d" stroke-width="1.2"/><text x="717" y="189" fill="#e8ecf4" font-family="ui-sans-serif, system-ui, -apple-system, 'Segoe UI', 'DejaVu Sans', sans-serif" font-size="11">task 1</text><rect x="811" y="178" width="14" height="14" rx="4" fill="none" stroke="#e8a33d" stroke-width="1.2"/><path d="M 814.2 185.2 L 817 188 L 822 182" fill="none" stroke="#e8a33d" stroke-width="1.6" stroke-linecap="round" stroke-linejoin="round"/></g><g opacity="1.0"><rect x="705" y="208" width="132" height="30" rx="7" fill="#141d33" stroke="#e8a33d" stroke-width="1.2"/><text x="717" y="227" fill="#e8ecf4" font-family="ui-sans-serif, system-ui, -apple-system, 'Segoe UI', 'DejaVu Sans', sans-serif" font-size="11">task 2</text><rect x="811" y="216" width="14" height="14" rx="4" fill="none" stroke="#e8a33d" stroke-width="1.2"/><path d="M 814.2 223.2 L 817 226 L 822 220" fill="none" stroke="#e8a33d" stroke-width="1.6" stroke-linecap="round" stroke-linejoin="round"/></g><g opacity="1.0"><rect x="705" y="246" width="132" height="30" rx="7" fill="#141d33" stroke="#e8a33d" stroke-width="1.2"/><text x="717" y="265" fill="#e8ecf4" font-family="ui-sans-serif, system-ui, -apple-system, 'Segoe UI', 'DejaVu Sans', sans-serif" font-size="11">task 3</text><rect x="811" y="254" width="14" height="14" rx="4" fill="none" stroke="#e8a33d" stroke-width="1.2"/><path d="M 814.2 261.2 L 817 264 L 822 258" fill="none" stroke="#e8a33d" stroke-width="1.6" stroke-linecap="round" stroke-linejoin="round"/></g><path d="M 154 220 L 236 220" fill="none" stroke="#e8a33d" stroke-width="1.6" marker-end="url(#me8a33d)" opacity="1.0"/><g opacity="1.0"><rect x="172.5" y="210.0" width="45.0" height="20" rx="10" fill="#0e1526" stroke="none"/><text x="195.0" y="224.0" text-anchor="middle" fill="#e8ecf4" font-family="ui-sans-serif, system-ui, -apple-system, 'Segoe UI', 'DejaVu Sans', sans-serif" font-size="11">write</text></g><path d="M 115 192 C 140 130, 200 128, 268 150" fill="none" stroke="#e8a33d" stroke-width="1.6" marker-end="url(#me8a33d)" opacity="1.0"/><g opacity="1.0"><rect x="143.575" y="129.5" width="63.6" height="20" rx="10" fill="#0e1526" stroke="none"/><text x="175.375" y="143.5" text-anchor="middle" fill="#e8ecf4" font-family="ui-sans-serif, system-ui, -apple-system, 'Segoe UI', 'DejaVu Sans', sans-serif" font-size="11">write v0</text></g><path d="M 154 282 L 268 282" fill="none" stroke="#e8a33d" stroke-width="1.6" marker-end="url(#me8a33d)" opacity="1.0"/><g opacity="1.0"><rect x="160.2" y="272" width="63.6" height="20" rx="10" fill="#0e1526" stroke="none"/><text x="192" y="286" text-anchor="middle" fill="#e8ecf4" font-family="ui-sans-serif, system-ui, -apple-system, 'Segoe UI', 'DejaVu Sans', sans-serif" font-size="11">write v0</text></g><path d="M 405 308 L 405 356" fill="none" stroke="#5b87c9" stroke-width="1.6" marker-end="url(#m5b87c9)" opacity="1.0"/><g opacity="1.0"><rect x="382.5" y="330" width="45.0" height="20" rx="10" fill="#0e1526" stroke="none"/><text x="405" y="344" text-anchor="middle" fill="#e8ecf4" font-family="ui-sans-serif, system-ui, -apple-system, 'Segoe UI', 'DejaVu Sans', sans-serif" font-size="11">calls</text></g><path d="M 542 282 L 676 282" fill="none" stroke="#5b87c9" stroke-width="1.6" marker-end="url(#m5b87c9)" opacity="1.0"/><g opacity="1.0"><rect x="577.2" y="272.0" width="63.6" height="20" rx="10" fill="#0e1526" stroke="none"/><text x="609.0" y="286.0" text-anchor="middle" fill="#e8ecf4" font-family="ui-sans-serif, system-ui, -apple-system, 'Segoe UI', 'DejaVu Sans', sans-serif" font-size="11">attempts</text></g><path d="M 720 126 C 690 58, 570 50, 500 128" fill="none" stroke="#5b87c9" stroke-width="1.6" marker-end="url(#m5b87c9)" opacity="1.0"/><g opacity="1.0"><rect x="568.4" y="62.25" width="113.2" height="20" rx="10" fill="#0e1526" stroke="none"/><text x="625.0" y="76.25" text-anchor="middle" fill="#e8ecf4" font-family="ui-sans-serif, system-ui, -apple-system, 'Segoe UI', 'DejaVu Sans', sans-serif" font-size="11">results + traces</text></g></svg>