<svg xmlns="http://www.w3.org/2000/svg" width="104" height="136" viewBox="0 0 52 68" overflow="visible" style="filter:drop-shadow(0 1.5px 1.5px rgba(0,0,0,0.25))"><rect x="16" y="36" width="20" height="16" fill="#4A90D9" rx="3"></rect><ellipse cx="26" cy="25" rx="10" ry="10" fill="#FDEBD0"></ellipse><g transform="translate(26 25)" fill="#4A3222" stroke-linecap="round" stroke-width=".8"><path d="M-10 0 Q-12 -10 -3 -11 Q7 -14 10 -5 L10 0 L8 -3 Q4 -3 2 -7 Q-2 -2 -8 -3 Z"></path><path d="M-7 -7 Q-3 -11 2 -9" fill="none" stroke="white" stroke-opacity=".13"></path></g><g transform="translate(26 25)" stroke-linecap="round" stroke-linejoin="round"><path d="M-1.2 14 L-2.5 22 L0 24 L2.5 22 L1.2 14 Z" fill="#33465c"></path><path d="M0 15 L1 22" stroke="#73879c" stroke-width=".7"></path><path d="M-2 11 H2 L1.2 14 H-1.2 Z" fill="#26384b"></path></g><circle cx="22" cy="26" r="1.8" fill="#333"></circle><circle cx="30" cy="26" r="1.8" fill="#333"></circle><circle cx="22.5" cy="25.5" r="0.6" fill="white"></circle><circle cx="30.5" cy="25.5" r="0.6" fill="white"></circle><path d="M23 30 Q26 32 29 30" stroke="#333" fill="none" stroke-width="0.8"></path><rect x="7" y="40" width="7" height="4" fill="#FDEBD0" rx="2"></rect><g><rect x="34" y="20" width="4" height="19" fill="#FDEBD0" rx="2"></rect><circle cx="36" cy="19" r="4" fill="#FDEBD0"></circle><animateTransform attributeName="transform" type="rotate" values="-15 36 39;15 36 39;-15 36 39" dur="0.9s" repeatCount="indefinite"></animateTransform></g><rect x="18" y="52" width="6" height="10" fill="#444" rx="2"></rect><rect x="28" y="52" width="6" height="10" fill="#444" rx="2"></rect></svg>